{"title":"Out.of.the.Ashes.2010.DVDRiP.XviD-UNVEiL","uid":6176339,"size":747999009,"categoryP":"video","categoryS":"movies","magnet":"?xt=urn:btih:886a771fd181d4a545a90be608af5c37749a6dc8&amp;dn=Out.of.the.Ashes.2010.DVDRiP.XviD-UNVEiL&amp;tr=udp%3A%2F%2Ftracker.openbittorrent.com%3A80&amp;tr=udp%3A%2F%2Fopen.demonii.com%3A1337&amp;tr=udp%3A%2F%2Ftracker.coppersurfer.tk%3A6969&amp;tr=udp%3A%2F%2Fexodus.desync.com%3A6969","seeders":0,"leechers":0,"uploader":"sceneline","files":55,"time":1297783849,"description":"-\nwww.TorrentKit.com      thanks for supporting with server,\nwww.TorrentKit.com      where speed speaks hot tracker\ndon't forget to to visit torrentkit.com ,   Who love to share please seed for a better speed,\n-Out.of.the.Ashes.2010.DVDRiP.XviD-UNVEiL\n\nRelease 15/02/2011\nRetail 14/02/2011 (uk)\n &lt;a href=&quot;\nhttp://www.imdb.com/title/tt1691334/&quot; rel=&quot;nofollow&quot; target=&quot;_NEW&quot;&gt;\nhttp://www.imdb.com/title/tt1691334/&lt;/a&gt;\n\nideo\nID                               : 0\nFormat                           : MPEG-4 Visual\nFormat profile                   : Advanced Simple@L5\nFormat settings, BVOP            : 2\nFormat settings, QPel            : No\nFormat settings, GMC             : No warppoints\nFormat settings, Matrix          : Default (H.263)\nCodec ID                         : XVID\nCodec ID/Hint                    : XviD\nDuration                         : 1h 25mn\nBit rate                         : 986 Kbps\nWidth                            : 640 pixels\nHeight                           : 352 pixels\nDisplay aspect ratio             : 16:9\nFrame rate                       : 25.000 fps\nColor space                      : YUV\nChroma subsampling               : 4:2:0\nBit depth                        : 8 bits\nScan type                        : Progressive\nCompression mode                 : Lossy\nBits/(Pixel*Frame)               : 0.175\nStream size                      : 606 MiB (87%)\nWriting library                  : XviD 1.2.1 (UTC 2008-12-04)\n\nAudio\nID                               : 1\nFormat                           : MPEG Audio\nFormat version                   : Version 1\nFormat profile                   : Layer 3\nMode                             : Joint stereo\nMode extension                   : MS Stereo\nCodec ID                         : 55\nCodec ID/Hint                    : MP3\nDuration                         : 1h 25mn\nBit rate mode                    : Variable\nBit rate                         : 144 Kbps\nChannel(s)                       : 2 channels\nSampling rate                    : 48.0 KHz\nCompression mode                 : Lossy\nStream size                      : 84.9 MiB (12%)\nAlignment                        : Aligned on interleaves\nInterleave, duration             : 24 ms (0.60 video frame)\nInterleave, preload duration     : 486 ms\nWriting library                  : LAME3.98 \nEncoding settings                : -m j -V 4 -q 3 -lowpass 17.5 --abr 144","torrent":{"xt":"urn:btih:886a771fd181d4a545a90be608af5c37749a6dc8","amp;dn":"Out.of.the.Ashes.2010.DVDRiP.XviD-UNVEiL","amp;tr":["udp%3A%2F%2Ftracker.openbittorrent.com%3A80","udp%3A%2F%2Fopen.demonii.com%3A1337","udp%3A%2F%2Ftracker.coppersurfer.tk%3A6969","udp%3A%2F%2Fexodus.desync.com%3A6969"],"infoHash":"886a771fd181d4a545a90be608af5c37749a6dc8","infoHashBuffer":{"type":"Buffer","data":[136,106,119,31,209,129,212,165,69,169,11,230,8,175,92,55,116,154,109,200]},"announce":[],"urlList":[]}}